<svg id="Layer_1" data-name="Layer 1" xmlns="http://www.w3.org/2000/svg" xmlns:xlink="http://www.w3.org/1999/xlink" viewBox="0 0 360 146.32"><defs><style>.cls-1{fill:none;}.cls-2{opacity:0.2;}.cls-3{clip-path:url(#clip-path);}.cls-4{fill:#fff;}.cls-5{fill:#263238;}.cls-6{fill:#f4511e;}</style><clipPath id="clip-path"><rect class="cls-1" x="-583.53" y="-59.67" width="393.71" height="611.6"/></clipPath></defs><title>Horizontal_Color</title><g class="cls-2"><g class="cls-3"><path class="cls-4" d="M3.71-5.4,1.21,16.85H2.42a1.31,1.31,0,0,0,1.31-1.31l2.51-19A1.31,1.31,0,0,1,7.55-4.79h4.51l.15,0v2.27a.31.31,0,0,0,.52.22l2.5-2.48L17-6.55H4.85A1.15,1.15,0,0,0,3.71-5.4Z"/><path class="cls-4" d="M1.41-6.55H-11A1.31,1.31,0,0,0-9.82-4.79h7.53A1.31,1.31,0,0,1-1-3.48l-2.5,19a1.31,1.31,0,0,0,1.31,1.31h.87L1.21-5.4A3.7,3.7,0,0,1,1.41-6.55Z"/><rect class="cls-4" x="-1.3" y="16.85" width="2.5"/><path class="cls-4" d="M3.71,47.34,1.21,69.59H2.42a1.31,1.31,0,0,0,1.31-1.31l2.51-19A1.3,1.3,0,0,1,7.55,48h4.51l.15,0v2.26a.3.3,0,0,0,.52.22l2.5-2.47L17,46.19H4.85A1.14,1.14,0,0,0,3.71,47.34Z"/><path class="cls-4" d="M15.23,41.94l-2.5-2.47a.3.3,0,0,0-.52.22v2.16H-8.43a1.3,1.3,0,0,0-1.22.82l-.41,1H17Z"/><path class="cls-4" d="M1.41,46.19H-11A1.31,1.31,0,0,0-9.82,48h7.53A1.3,1.3,0,0,1-1,49.26l-2.5,19a1.31,1.31,0,0,0,1.31,1.31h.87L1.21,47.34A3.6,3.6,0,0,1,1.41,46.19Z"/><rect class="cls-4" x="-1.3" y="69.59" width="2.5"/><path class="cls-4" d="M3.71,100.45l-2.5,22.26H2.42a1.31,1.31,0,0,0,1.31-1.31l2.51-19a1.31,1.31,0,0,1,1.31-1.31h4.66v2.26a.3.3,0,0,0,.52.22l2.5-2.48L17,99.31H4.85A1.14,1.14,0,0,0,3.71,100.45Z"/><path class="cls-4" d="M15.23,95.06l-2.5-2.48a.31.31,0,0,0-.52.22V95l-.15,0H-8.43a1.31,1.31,0,0,0-1.22.83l-.41,1H17Z"/><path class="cls-4" d="M1.41,99.31H-11a1.3,1.3,0,0,0,1.22,1.75h7.53A1.31,1.31,0,0,1-1,102.37l-2.5,19a1.31,1.31,0,0,0,1.31,1.31h.87l2.51-22.26A3.59,3.59,0,0,1,1.41,99.31Z"/><rect class="cls-4" x="-1.3" y="122.71" width="2.5"/><path class="cls-4" d="M40.07-5.4,37.56,16.85h1.22a1.31,1.31,0,0,0,1.31-1.31l2.5-19A1.31,1.31,0,0,1,43.9-4.79h4.52l.15,0v2.27a.31.31,0,0,0,.52.22l2.5-2.48,1.75-1.75H41.21A1.15,1.15,0,0,0,40.07-5.4Z"/><path class="cls-4" d="M37.77-6.55H25.31a1.32,1.32,0,0,0,1.23,1.76h7.53a1.31,1.31,0,0,1,1.31,1.31l-2.5,19a1.31,1.31,0,0,0,1.31,1.31h.87L37.56-5.4A3.71,3.71,0,0,1,37.77-6.55Z"/><rect class="cls-4" x="35.06" y="16.85" width="2.5"/><path class="cls-4" d="M75.62-5.4l-2.5,22.25h1.21a1.31,1.31,0,0,0,1.31-1.31l2.51-19a1.31,1.31,0,0,1,1.31-1.31H84l.15,0v2.27a.31.31,0,0,0,.53.22L87.14-4.8,88.9-6.55H76.76A1.15,1.15,0,0,0,75.62-5.4Z"/><path class="cls-4" d="M73.32-6.55H60.87a1.31,1.31,0,0,0,1.22,1.76h7.53a1.31,1.31,0,0,1,1.31,1.31l-2.5,19a1.31,1.31,0,0,0,1.31,1.31h.87L73.12-5.4A3.7,3.7,0,0,1,73.32-6.55Z"/><rect class="cls-4" x="70.61" y="16.85" width="2.5"/><path class="cls-4" d="M111.17-5.4l-2.5,22.25h1.22a1.31,1.31,0,0,0,1.31-1.31l2.5-19A1.31,1.31,0,0,1,115-4.79h4.52l.14,0v2.27a.31.31,0,0,0,.53.22l2.49-2.48,1.76-1.75H112.32A1.16,1.16,0,0,0,111.17-5.4Z"/><path class="cls-4" d="M108.87-6.55H96.42a1.31,1.31,0,0,0,1.23,1.76h7.53a1.31,1.31,0,0,1,1.31,1.31l-2.51,19a1.31,1.31,0,0,0,1.31,1.31h.88l2.5-22.25A3.7,3.7,0,0,1,108.87-6.55Z"/><rect class="cls-4" x="106.17" y="16.85" width="2.5"/><path class="cls-4" d="M146.72-5.4l-2.5,22.25h1.22a1.31,1.31,0,0,0,1.31-1.31l2.5-19a1.31,1.31,0,0,1,1.31-1.31h4.52l.15,0v2.27a.31.31,0,0,0,.52.22l2.49-2.48L160-6.55H147.87A1.16,1.16,0,0,0,146.72-5.4Z"/><path class="cls-4" d="M144.42-6.55H132a1.31,1.31,0,0,0,1.23,1.76h7.53A1.31,1.31,0,0,1,142-3.48l-2.5,19a1.31,1.31,0,0,0,1.31,1.31h.87l2.5-22.25A3.7,3.7,0,0,1,144.42-6.55Z"/><rect class="cls-4" x="141.72" y="16.85" width="2.5"/><path class="cls-4" d="M182.28-5.4l-2.51,22.25H181a1.31,1.31,0,0,0,1.31-1.31l2.5-19a1.31,1.31,0,0,1,1.31-1.31h4.52l.15,0v2.27a.31.31,0,0,0,.52.22l2.5-2.48,1.75-1.75H183.42A1.15,1.15,0,0,0,182.28-5.4Z"/><path class="cls-4" d="M180-6.55H167.52a1.32,1.32,0,0,0,1.23,1.76h7.53a1.31,1.31,0,0,1,1.31,1.31l-2.5,19a1.31,1.31,0,0,0,1.31,1.31h.87l2.5-22.25A3.71,3.71,0,0,1,180-6.55Z"/><rect class="cls-4" x="177.27" y="16.85" width="2.5"/><path class="cls-4" d="M217.83-5.4l-2.5,22.25h1.21a1.31,1.31,0,0,0,1.31-1.31l2.51-19a1.31,1.31,0,0,1,1.31-1.31h4.51l.15,0v2.27a.31.31,0,0,0,.53.22l2.49-2.48,1.76-1.75H219A1.15,1.15,0,0,0,217.83-5.4Z"/><path class="cls-4" d="M215.53-6.55H203.08a1.31,1.31,0,0,0,1.22,1.76h7.53a1.31,1.31,0,0,1,1.31,1.31l-2.5,19A1.31,1.31,0,0,0,212,16.85h.87L215.33-5.4A3.7,3.7,0,0,1,215.53-6.55Z"/><rect class="cls-4" x="212.82" y="16.85" width="2.5"/><path class="cls-4" d="M194.3,26.46l2.5-22.25h-1.22a1.31,1.31,0,0,0-1.31,1.31l-2.5,19a1.31,1.31,0,0,1-1.31,1.31h-4.52l-.14,0V23.6a.31.31,0,0,0-.53-.21l-2.49,2.47L181,27.61h12.13A1.16,1.16,0,0,0,194.3,26.46Z"/><path class="cls-4" d="M182.78,31.86l2.49,2.47a.31.31,0,0,0,.53-.22V32h20.64a1.3,1.3,0,0,0,1.22-.82l.4-1H181Z"/><path class="cls-4" d="M196.6,27.61h12.45a1.31,1.31,0,0,0-1.23-1.76h-7.53A1.31,1.31,0,0,1,199,24.54l2.51-19a1.31,1.31,0,0,0-1.31-1.31h-.88l-2.5,22.25A3.6,3.6,0,0,1,196.6,27.61Z"/><rect class="cls-4" x="196.8" y="4.21" width="2.5"/><path class="cls-4" d="M158.74,26.46l2.51-22.25H160a1.31,1.31,0,0,0-1.31,1.31l-2.5,19a1.31,1.31,0,0,1-1.31,1.31h-4.52l-.15,0V23.6a.3.3,0,0,0-.52-.21l-2.49,2.47-1.76,1.75H157.6A1.15,1.15,0,0,0,158.74,26.46Z"/><path class="cls-4" d="M147.23,31.86l2.49,2.47a.3.3,0,0,0,.52-.22V32h20.65a1.31,1.31,0,0,0,1.22-.82l.4-1h-27Z"/><path class="cls-4" d="M161.05,27.61H173.5a1.31,1.31,0,0,0-1.23-1.76h-7.53a1.31,1.31,0,0,1-1.31-1.31l2.5-19a1.31,1.31,0,0,0-1.31-1.31h-.87l-2.5,22.25A3.6,3.6,0,0,1,161.05,27.61Z"/><rect class="cls-4" x="161.25" y="4.21" width="2.5"/><path class="cls-4" d="M123.19,26.46l2.5-22.25h-1.21a1.31,1.31,0,0,0-1.31,1.31l-2.51,19a1.3,1.3,0,0,1-1.31,1.31h-4.51l-.15,0V23.6a.3.3,0,0,0-.52-.21l-2.5,2.47-1.76,1.75h12.14A1.15,1.15,0,0,0,123.19,26.46Z"/><path class="cls-4" d="M111.67,31.86l2.5,2.47a.3.3,0,0,0,.52-.22V32h20.65a1.29,1.29,0,0,0,1.21-.82l.41-1H109.91Z"/><path class="cls-4" d="M125.49,27.61H138a1.32,1.32,0,0,0-1.23-1.76h-7.53a1.31,1.31,0,0,1-1.31-1.31l2.5-19a1.31,1.31,0,0,0-1.31-1.31h-.87l-2.51,22.25A3.6,3.6,0,0,1,125.49,27.61Z"/><rect class="cls-4" x="125.69" y="4.21" width="2.5"/><path class="cls-4" d="M87.64,26.46l2.5-22.25H88.92a1.31,1.31,0,0,0-1.31,1.31l-2.5,19a1.3,1.3,0,0,1-1.31,1.31H79.29l-.15,0V23.6a.31.31,0,0,0-.53-.21l-2.49,2.47-1.76,1.75H86.49A1.15,1.15,0,0,0,87.64,26.46Z"/><path class="cls-4" d="M76.12,31.86l2.49,2.47a.31.31,0,0,0,.53-.22V32H99.78a1.3,1.3,0,0,0,1.22-.82l.41-1h-27Z"/><path class="cls-4" d="M89.94,27.61h12.45a1.31,1.31,0,0,0-1.22-1.76H93.64a1.3,1.3,0,0,1-1.31-1.31l2.5-19a1.31,1.31,0,0,0-1.31-1.31h-.88l-2.5,22.25A3.6,3.6,0,0,1,89.94,27.61Z"/><rect class="cls-4" x="90.14" y="4.21" width="2.5"/><path class="cls-4" d="M52.09,26.46l2.5-22.25H53.37a1.31,1.31,0,0,0-1.31,1.31l-2.5,19a1.31,1.31,0,0,1-1.31,1.31H43.73l-.14,0V23.6a.31.31,0,0,0-.53-.21l-2.49,2.47-1.76,1.75H50.94A1.16,1.16,0,0,0,52.09,26.46Z"/><path class="cls-4" d="M40.57,31.86l2.49,2.47a.31.31,0,0,0,.53-.22V32H64.23a1.3,1.3,0,0,0,1.22-.82l.4-1h-27Z"/><path class="cls-4" d="M54.39,27.61H66.84a1.31,1.31,0,0,0-1.23-1.76H58.08a1.31,1.31,0,0,1-1.31-1.31l2.51-19A1.31,1.31,0,0,0,58,4.21h-.88l-2.5,22.25A3.6,3.6,0,0,1,54.39,27.61Z"/><rect class="cls-4" x="54.59" y="4.21" width="2.5"/><path class="cls-4" d="M16.53,26.46,19,4.21H17.82a1.31,1.31,0,0,0-1.31,1.31l-2.5,19a1.31,1.31,0,0,1-1.31,1.31H8.18l-.15,0V23.6a.3.3,0,0,0-.52-.21L5,25.86,3.26,27.61H15.39A1.15,1.15,0,0,0,16.53,26.46Z"/><path class="cls-4" d="M5,31.86l2.49,2.47A.3.3,0,0,0,8,34.11V32H28.68a1.31,1.31,0,0,0,1.22-.82l.4-1h-27Z"/><path class="cls-4" d="M18.84,27.61H31.29a1.31,1.31,0,0,0-1.23-1.76H22.53a1.31,1.31,0,0,1-1.31-1.31l2.5-19a1.31,1.31,0,0,0-1.31-1.31h-.87L19,26.46A3.6,3.6,0,0,1,18.84,27.61Z"/><rect class="cls-4" x="19.04" y="4.21" width="2.5"/><path class="cls-4" d="M40.07,47.34,37.56,69.59h1.22a1.31,1.31,0,0,0,1.31-1.31l2.5-19A1.31,1.31,0,0,1,43.9,48h4.52l.15,0v2.26a.3.3,0,0,0,.52.22l2.5-2.47,1.75-1.75H41.21A1.14,1.14,0,0,0,40.07,47.34Z"/><path class="cls-4" d="M51.59,41.94l-2.5-2.47a.3.3,0,0,0-.52.22v2.16H27.92a1.29,1.29,0,0,0-1.21.82l-.41,1h27Z"/><path class="cls-4" d="M37.77,46.19H25.31A1.32,1.32,0,0,0,26.54,48h7.53a1.31,1.31,0,0,1,1.31,1.31l-2.5,19a1.31,1.31,0,0,0,1.31,1.31h.87l2.5-22.25A3.61,3.61,0,0,1,37.77,46.19Z"/><rect class="cls-4" x="35.06" y="69.59" width="2.5"/><path class="cls-4" d="M75.62,47.34l-2.5,22.25h1.21a1.31,1.31,0,0,0,1.31-1.31l2.51-19A1.3,1.3,0,0,1,79.46,48H84l.15,0v2.26a.31.31,0,0,0,.53.22l2.49-2.47,1.76-1.75H76.76A1.14,1.14,0,0,0,75.62,47.34Z"/><path class="cls-4" d="M87.14,41.94l-2.49-2.47a.31.31,0,0,0-.53.22v2.16H63.48a1.3,1.3,0,0,0-1.22.82l-.41,1H88.9Z"/><path class="cls-4" d="M73.32,46.19H60.87A1.31,1.31,0,0,0,62.09,48h7.53a1.3,1.3,0,0,1,1.31,1.31l-2.5,19a1.31,1.31,0,0,0,1.31,1.31h.87l2.51-22.25A3.6,3.6,0,0,1,73.32,46.19Z"/><rect class="cls-4" x="70.61" y="69.59" width="2.5"/><path class="cls-4" d="M111.17,47.34l-2.5,22.25h1.22a1.31,1.31,0,0,0,1.31-1.31l2.5-19A1.31,1.31,0,0,1,115,48h4.52l.14,0v2.26a.31.31,0,0,0,.53.22l2.49-2.47,1.76-1.75H112.32A1.15,1.15,0,0,0,111.17,47.34Z"/><path class="cls-4" d="M122.69,41.94l-2.49-2.47a.31.31,0,0,0-.53.22v2.16H99a1.3,1.3,0,0,0-1.22.82l-.41,1h27.05Z"/><path class="cls-4" d="M108.87,46.19H96.42A1.31,1.31,0,0,0,97.65,48h7.53a1.31,1.31,0,0,1,1.31,1.31l-2.51,19a1.31,1.31,0,0,0,1.31,1.31h.88l2.5-22.25A3.6,3.6,0,0,1,108.87,46.19Z"/><rect class="cls-4" x="106.17" y="69.59" width="2.5"/><path class="cls-4" d="M146.72,47.34l-2.5,22.25h1.22a1.31,1.31,0,0,0,1.31-1.31l2.5-19A1.31,1.31,0,0,1,150.56,48h4.52l.15,0v2.26a.3.3,0,0,0,.52.22l2.49-2.47L160,46.19H147.87A1.15,1.15,0,0,0,146.72,47.34Z"/><path class="cls-4" d="M158.24,41.94l-2.49-2.47a.3.3,0,0,0-.52.22v2.16H134.58a1.3,1.3,0,0,0-1.22.82l-.4,1h27Z"/><path class="cls-4" d="M144.42,46.19H132A1.31,1.31,0,0,0,133.2,48h7.53A1.31,1.31,0,0,1,142,49.26l-2.5,19a1.31,1.31,0,0,0,1.31,1.31h.87l2.5-22.25A3.6,3.6,0,0,1,144.42,46.19Z"/><rect class="cls-4" x="141.72" y="69.59" width="2.5"/><path class="cls-4" d="M182.28,47.34l-2.51,22.25H181a1.31,1.31,0,0,0,1.31-1.31l2.5-19A1.31,1.31,0,0,1,186.11,48h4.52l.15,0v2.26a.3.3,0,0,0,.52.22l2.5-2.47,1.75-1.75H183.42A1.14,1.14,0,0,0,182.28,47.34Z"/><path class="cls-4" d="M193.8,41.94l-2.5-2.47a.3.3,0,0,0-.52.22v2.16H170.13a1.29,1.29,0,0,0-1.21.82l-.41,1h27Z"/><path class="cls-4" d="M180,46.19H167.52A1.32,1.32,0,0,0,168.75,48h7.53a1.31,1.31,0,0,1,1.31,1.31l-2.5,19a1.31,1.31,0,0,0,1.31,1.31h.87l2.5-22.25A3.61,3.61,0,0,1,180,46.19Z"/><rect class="cls-4" x="177.27" y="69.59" width="2.5"/><path class="cls-4" d="M217.83,47.34l-2.5,22.25h1.21a1.31,1.31,0,0,0,1.31-1.31l2.51-19A1.3,1.3,0,0,1,221.67,48h4.51l.15,0v2.26a.31.31,0,0,0,.53.22l2.49-2.47,1.76-1.75H219A1.14,1.14,0,0,0,217.83,47.34Z"/><path class="cls-4" d="M229.35,41.94l-2.49-2.47a.31.31,0,0,0-.53.22v2.16H205.69a1.3,1.3,0,0,0-1.22.82l-.41,1h27.05Z"/><path class="cls-4" d="M215.53,46.19H203.08A1.31,1.31,0,0,0,204.3,48h7.53a1.3,1.3,0,0,1,1.31,1.31l-2.5,19A1.31,1.31,0,0,0,212,69.59h.87l2.51-22.25A3.6,3.6,0,0,1,215.53,46.19Z"/><rect class="cls-4" x="212.82" y="69.59" width="2.5"/><path class="cls-4" d="M194.3,79.2,196.8,57h-1.22a1.31,1.31,0,0,0-1.31,1.31l-2.5,19a1.31,1.31,0,0,1-1.31,1.31H185.8V76.34a.31.31,0,0,0-.53-.22l-2.49,2.48L181,80.34h12.13A1.15,1.15,0,0,0,194.3,79.2Z"/><path class="cls-4" d="M182.78,84.59l2.49,2.48a.31.31,0,0,0,.53-.22V84.68l.14,0h20.5a1.31,1.31,0,0,0,1.22-.83l.4-1H181Z"/><path class="cls-4" d="M196.6,80.34h12.45a1.3,1.3,0,0,0-1.23-1.75h-7.53A1.31,1.31,0,0,1,199,77.28l2.51-19A1.31,1.31,0,0,0,200.18,57h-.88L196.8,79.2A3.59,3.59,0,0,1,196.6,80.34Z"/><rect class="cls-4" x="196.8" y="56.95" width="2.5"/><path class="cls-4" d="M158.74,79.2,161.25,57H160a1.31,1.31,0,0,0-1.31,1.31l-2.5,19a1.31,1.31,0,0,1-1.31,1.31h-4.67V76.34a.31.31,0,0,0-.52-.22l-2.49,2.48-1.76,1.74H157.6A1.14,1.14,0,0,0,158.74,79.2Z"/><path class="cls-4" d="M147.23,84.59l2.49,2.48a.31.31,0,0,0,.52-.22V84.68l.15,0h20.5a1.32,1.32,0,0,0,1.22-.83l.4-1h-27Z"/><path class="cls-4" d="M161.05,80.34H173.5a1.3,1.3,0,0,0-1.23-1.75h-7.53a1.31,1.31,0,0,1-1.31-1.31l2.5-19A1.3,1.3,0,0,0,164.62,57h-.87l-2.5,22.25A3.59,3.59,0,0,1,161.05,80.34Z"/><rect class="cls-4" x="161.25" y="56.95" width="2.5"/><path class="cls-4" d="M123.19,79.2,125.69,57h-1.21a1.3,1.3,0,0,0-1.31,1.31l-2.51,19a1.31,1.31,0,0,1-1.31,1.31h-4.66V76.34a.31.31,0,0,0-.52-.22l-2.5,2.48-1.76,1.74h12.14A1.14,1.14,0,0,0,123.19,79.2Z"/><path class="cls-4" d="M111.67,84.59l2.5,2.48a.31.31,0,0,0,.52-.22V84.68l.15,0h20.5a1.3,1.3,0,0,0,1.21-.83l.41-1H109.91Z"/><path class="cls-4" d="M125.49,80.34H138a1.31,1.31,0,0,0-1.23-1.75h-7.53a1.31,1.31,0,0,1-1.31-1.31l2.5-19A1.31,1.31,0,0,0,129.07,57h-.87L125.69,79.2A3.59,3.59,0,0,1,125.49,80.34Z"/><rect class="cls-4" x="125.69" y="56.95" width="2.5"/><path class="cls-4" d="M87.64,79.2,90.14,57H88.92a1.31,1.31,0,0,0-1.31,1.31l-2.5,19a1.31,1.31,0,0,1-1.31,1.31H79.14V76.34a.31.31,0,0,0-.53-.22L76.12,78.6l-1.76,1.74H86.49A1.14,1.14,0,0,0,87.64,79.2Z"/><path class="cls-4" d="M76.12,84.59l2.49,2.48a.31.31,0,0,0,.53-.22V84.68l.15,0H99.78a1.31,1.31,0,0,0,1.22-.83l.41-1h-27Z"/><path class="cls-4" d="M89.94,80.34h12.45a1.3,1.3,0,0,0-1.22-1.75H93.64a1.31,1.31,0,0,1-1.31-1.31l2.5-19A1.31,1.31,0,0,0,93.52,57h-.88L90.14,79.2A3.59,3.59,0,0,1,89.94,80.34Z"/><rect class="cls-4" x="90.14" y="56.95" width="2.5"/><path class="cls-4" d="M52.09,79.2,54.59,57H53.37a1.31,1.31,0,0,0-1.31,1.31l-2.5,19a1.31,1.31,0,0,1-1.31,1.31H43.59V76.34a.31.31,0,0,0-.53-.22L40.57,78.6l-1.76,1.74H50.94A1.15,1.15,0,0,0,52.09,79.2Z"/><path class="cls-4" d="M40.57,84.59l2.49,2.48a.31.31,0,0,0,.53-.22V84.68l.14,0h20.5a1.31,1.31,0,0,0,1.22-.83l.4-1h-27Z"/><path class="cls-4" d="M54.39,80.34H66.84a1.3,1.3,0,0,0-1.23-1.75H58.08a1.31,1.31,0,0,1-1.31-1.31l2.51-19A1.31,1.31,0,0,0,58,57h-.88L54.59,79.2A3.59,3.59,0,0,1,54.39,80.34Z"/><rect class="cls-4" x="54.59" y="56.95" width="2.5"/><path class="cls-4" d="M16.53,79.2,19,57H17.82a1.31,1.31,0,0,0-1.31,1.31l-2.5,19a1.31,1.31,0,0,1-1.31,1.31H8V76.34a.31.31,0,0,0-.52-.22L5,78.6,3.26,80.34H15.39A1.14,1.14,0,0,0,16.53,79.2Z"/><path class="cls-4" d="M5,84.59l2.49,2.48A.31.31,0,0,0,8,86.85V84.68l.15,0h20.5a1.32,1.32,0,0,0,1.22-.83l.4-1h-27Z"/><path class="cls-4" d="M18.84,80.34H31.29a1.3,1.3,0,0,0-1.23-1.75H22.53a1.31,1.31,0,0,1-1.31-1.31l2.5-19A1.3,1.3,0,0,0,22.41,57h-.87L19,79.2A3.59,3.59,0,0,1,18.84,80.34Z"/><rect class="cls-4" x="19.04" y="56.95" width="2.5"/><path class="cls-4" d="M40.07,100.45l-2.51,22.26h1.22a1.31,1.31,0,0,0,1.31-1.31l2.5-19a1.31,1.31,0,0,1,1.31-1.31h4.67v2.26a.3.3,0,0,0,.52.22l2.5-2.48,1.75-1.74H41.21A1.14,1.14,0,0,0,40.07,100.45Z"/><path class="cls-4" d="M51.59,95.06l-2.5-2.48a.31.31,0,0,0-.52.22V95l-.15,0H27.92a1.3,1.3,0,0,0-1.21.83l-.41,1h27Z"/><path class="cls-4" d="M37.77,99.31H25.31a1.31,1.31,0,0,0,1.23,1.75h7.53a1.31,1.31,0,0,1,1.31,1.31l-2.5,19a1.31,1.31,0,0,0,1.31,1.31h.87l2.5-22.26A3.6,3.6,0,0,1,37.77,99.31Z"/><rect class="cls-4" x="35.06" y="122.71" width="2.5"/><path class="cls-4" d="M75.62,100.45l-2.5,22.26h1.21a1.31,1.31,0,0,0,1.31-1.31l2.51-19a1.31,1.31,0,0,1,1.31-1.31h4.66v2.26a.31.31,0,0,0,.53.22l2.49-2.48,1.76-1.74H76.76A1.14,1.14,0,0,0,75.62,100.45Z"/><path class="cls-4" d="M87.14,95.06l-2.49-2.48a.31.31,0,0,0-.53.22V95L84,95H63.48a1.31,1.31,0,0,0-1.22.83l-.41,1H88.9Z"/><path class="cls-4" d="M73.32,99.31H60.87a1.3,1.3,0,0,0,1.22,1.75h7.53a1.31,1.31,0,0,1,1.31,1.31l-2.5,19a1.31,1.31,0,0,0,1.31,1.31h.87l2.51-22.26A3.59,3.59,0,0,1,73.32,99.31Z"/><rect class="cls-4" x="70.61" y="122.71" width="2.5"/><path class="cls-4" d="M111.17,100.45l-2.5,22.26h1.22a1.31,1.31,0,0,0,1.31-1.31l2.5-19a1.31,1.31,0,0,1,1.31-1.31h4.66v2.26a.31.31,0,0,0,.53.22l2.49-2.48,1.76-1.74H112.32A1.15,1.15,0,0,0,111.17,100.45Z"/><path class="cls-4" d="M122.69,95.06l-2.49-2.48a.31.31,0,0,0-.53.22V95l-.14,0H99a1.31,1.31,0,0,0-1.22.83l-.41,1h27.05Z"/><path class="cls-4" d="M108.87,99.31H96.42a1.3,1.3,0,0,0,1.23,1.75h7.53a1.31,1.31,0,0,1,1.31,1.31l-2.51,19a1.31,1.31,0,0,0,1.31,1.31h.88l2.5-22.26A3.59,3.59,0,0,1,108.87,99.31Z"/><rect class="cls-4" x="106.17" y="122.71" width="2.5"/><path class="cls-4" d="M146.72,100.45l-2.5,22.26h1.22a1.31,1.31,0,0,0,1.31-1.31l2.5-19a1.31,1.31,0,0,1,1.31-1.31h4.67v2.26a.3.3,0,0,0,.52.22l2.49-2.48L160,99.31H147.87A1.15,1.15,0,0,0,146.72,100.45Z"/><path class="cls-4" d="M158.24,95.06l-2.49-2.48a.31.31,0,0,0-.52.22V95l-.15,0h-20.5a1.31,1.31,0,0,0-1.22.83l-.4,1h27Z"/><path class="cls-4" d="M144.42,99.31H132a1.3,1.3,0,0,0,1.23,1.75h7.53a1.31,1.31,0,0,1,1.31,1.31l-2.5,19a1.31,1.31,0,0,0,1.31,1.31h.87l2.5-22.26A3.59,3.59,0,0,1,144.42,99.31Z"/><rect class="cls-4" x="141.72" y="122.71" width="2.5"/><path class="cls-4" d="M182.28,100.45l-2.51,22.26H181a1.31,1.31,0,0,0,1.31-1.31l2.5-19a1.31,1.31,0,0,1,1.31-1.31h4.67v2.26a.3.3,0,0,0,.52.22l2.5-2.48,1.75-1.74H183.42A1.14,1.14,0,0,0,182.28,100.45Z"/><path class="cls-4" d="M193.8,95.06l-2.5-2.48a.31.31,0,0,0-.52.22V95l-.15,0h-20.5a1.3,1.3,0,0,0-1.21.83l-.41,1h27Z"/><path class="cls-4" d="M180,99.31H167.52a1.31,1.31,0,0,0,1.23,1.75h7.53a1.31,1.31,0,0,1,1.31,1.31l-2.5,19a1.31,1.31,0,0,0,1.31,1.31h.87l2.5-22.26A3.6,3.6,0,0,1,180,99.31Z"/><rect class="cls-4" x="177.27" y="122.71" width="2.5"/><path class="cls-4" d="M217.83,100.45l-2.5,22.26h1.21a1.31,1.31,0,0,0,1.31-1.31l2.51-19a1.31,1.31,0,0,1,1.31-1.31h4.66v2.26a.31.31,0,0,0,.53.22l2.49-2.48,1.76-1.74H219A1.14,1.14,0,0,0,217.83,100.45Z"/><path class="cls-4" d="M229.35,95.06l-2.49-2.48a.31.31,0,0,0-.53.22V95l-.15,0H205.69a1.31,1.31,0,0,0-1.22.83l-.41,1h27.05Z"/><path class="cls-4" d="M215.53,99.31H203.08a1.3,1.3,0,0,0,1.22,1.75h7.53a1.31,1.31,0,0,1,1.31,1.31l-2.5,19a1.31,1.31,0,0,0,1.31,1.31h.87l2.51-22.26A3.59,3.59,0,0,1,215.53,99.31Z"/><rect class="cls-4" x="212.82" y="122.71" width="2.5"/><path class="cls-4" d="M194.3,132.32l2.5-22.26h-1.22a1.31,1.31,0,0,0-1.31,1.31l-2.5,19a1.31,1.31,0,0,1-1.31,1.31H185.8v-2.26a.31.31,0,0,0-.53-.22l-2.49,2.48L181,133.46h12.13A1.15,1.15,0,0,0,194.3,132.32Z"/><path class="cls-4" d="M182.78,137.71l2.49,2.48a.31.31,0,0,0,.53-.22V137.8l.14,0h20.5a1.31,1.31,0,0,0,1.22-.83l.4-1H181Z"/><path class="cls-4" d="M196.6,133.46h12.45a1.3,1.3,0,0,0-1.23-1.75h-7.53A1.31,1.31,0,0,1,199,130.4l2.51-19a1.31,1.31,0,0,0-1.31-1.31h-.88l-2.5,22.26A3.59,3.59,0,0,1,196.6,133.46Z"/><rect class="cls-4" x="196.8" y="110.06" width="2.5"/><path class="cls-4" d="M158.74,132.32l2.51-22.26H160a1.31,1.31,0,0,0-1.31,1.31l-2.5,19a1.31,1.31,0,0,1-1.31,1.31h-4.67v-2.26a.3.3,0,0,0-.52-.22l-2.49,2.48-1.76,1.74H157.6A1.14,1.14,0,0,0,158.74,132.32Z"/><path class="cls-4" d="M147.23,137.71l2.49,2.48a.31.31,0,0,0,.52-.22V137.8l.15,0h20.5a1.32,1.32,0,0,0,1.22-.83l.4-1h-27Z"/><path class="cls-4" d="M161.05,133.46H173.5a1.3,1.3,0,0,0-1.23-1.75h-7.53a1.31,1.31,0,0,1-1.31-1.31l2.5-19a1.31,1.31,0,0,0-1.31-1.31h-.87l-2.5,22.26A3.59,3.59,0,0,1,161.05,133.46Z"/><rect class="cls-4" x="161.25" y="110.06" width="2.5"/><path class="cls-4" d="M123.19,132.32l2.5-22.26h-1.21a1.31,1.31,0,0,0-1.31,1.31l-2.51,19a1.31,1.31,0,0,1-1.31,1.31h-4.66v-2.26a.3.3,0,0,0-.52-.22l-2.5,2.48-1.76,1.74h12.14A1.14,1.14,0,0,0,123.19,132.32Z"/><path class="cls-4" d="M111.67,137.71l2.5,2.48a.31.31,0,0,0,.52-.22V137.8l.15,0h20.5a1.3,1.3,0,0,0,1.21-.83l.41-1H109.91Z"/><path class="cls-4" d="M125.49,133.46H138a1.31,1.31,0,0,0-1.23-1.75h-7.53a1.31,1.31,0,0,1-1.31-1.31l2.5-19a1.31,1.31,0,0,0-1.31-1.31h-.87l-2.51,22.26A3.59,3.59,0,0,1,125.49,133.46Z"/><rect class="cls-4" x="125.69" y="110.06" width="2.5"/><path class="cls-4" d="M87.64,132.32l2.5-22.26H88.92a1.31,1.31,0,0,0-1.31,1.31l-2.5,19a1.31,1.31,0,0,1-1.31,1.31H79.14v-2.26a.31.31,0,0,0-.53-.22l-2.49,2.48-1.76,1.74H86.49A1.14,1.14,0,0,0,87.64,132.32Z"/><path class="cls-4" d="M76.12,137.71l2.49,2.48a.31.31,0,0,0,.53-.22V137.8l.15,0H99.78A1.31,1.31,0,0,0,101,137l.41-1h-27Z"/><path class="cls-4" d="M89.94,133.46h12.45a1.3,1.3,0,0,0-1.22-1.75H93.64a1.31,1.31,0,0,1-1.31-1.31l2.5-19a1.31,1.31,0,0,0-1.31-1.31h-.88l-2.5,22.26A3.59,3.59,0,0,1,89.94,133.46Z"/><rect class="cls-4" x="90.14" y="110.06" width="2.5"/><path class="cls-4" d="M52.09,132.32l2.5-22.26H53.37a1.31,1.31,0,0,0-1.31,1.31l-2.5,19a1.31,1.31,0,0,1-1.31,1.31H43.59v-2.26a.31.31,0,0,0-.53-.22l-2.49,2.48-1.76,1.74H50.94A1.15,1.15,0,0,0,52.09,132.32Z"/><path class="cls-4" d="M40.57,137.71l2.49,2.48a.31.31,0,0,0,.53-.22V137.8l.14,0h20.5a1.31,1.31,0,0,0,1.22-.83l.4-1h-27Z"/><path class="cls-4" d="M54.39,133.46H66.84a1.3,1.3,0,0,0-1.23-1.75H58.08a1.31,1.31,0,0,1-1.31-1.31l2.51-19A1.31,1.31,0,0,0,58,110.06h-.88l-2.5,22.26A3.59,3.59,0,0,1,54.39,133.46Z"/><rect class="cls-4" x="54.59" y="110.06" width="2.5"/><path class="cls-4" d="M16.53,132.32,19,110.06H17.82a1.31,1.31,0,0,0-1.31,1.31l-2.5,19a1.31,1.31,0,0,1-1.31,1.31H8v-2.26a.3.3,0,0,0-.52-.22L5,131.72l-1.76,1.74H15.39A1.14,1.14,0,0,0,16.53,132.32Z"/><path class="cls-4" d="M5,137.71l2.49,2.48A.31.31,0,0,0,8,140V137.8l.15,0h20.5A1.32,1.32,0,0,0,29.9,137l.4-1h-27Z"/><path class="cls-4" d="M18.84,133.46H31.29a1.3,1.3,0,0,0-1.23-1.75H22.53a1.31,1.31,0,0,1-1.31-1.31l2.5-19a1.31,1.31,0,0,0-1.31-1.31h-.87L19,132.32A3.59,3.59,0,0,1,18.84,133.46Z"/><rect class="cls-4" x="19.04" y="110.06" width="2.5"/><path class="cls-4" d="M15.23,148.18l-2.5-2.48a.31.31,0,0,0-.52.22v2.17l-.15,0H-8.43a1.31,1.31,0,0,0-1.22.83l-.41,1H17Z"/><path class="cls-4" d="M51.59,148.18l-2.5-2.48a.31.31,0,0,0-.52.22v2.17l-.15,0H27.92a1.3,1.3,0,0,0-1.21.83l-.41,1h27Z"/><path class="cls-4" d="M87.14,148.18l-2.49-2.48a.31.31,0,0,0-.53.22v2.17l-.15,0H63.48a1.31,1.31,0,0,0-1.22.83l-.41,1H88.9Z"/><path class="cls-4" d="M122.69,148.18l-2.49-2.48a.31.31,0,0,0-.53.22v2.17l-.14,0H99a1.31,1.31,0,0,0-1.22.83l-.41,1h27.05Z"/><path class="cls-4" d="M158.24,148.18l-2.49-2.48a.31.31,0,0,0-.52.22v2.17l-.15,0h-20.5a1.31,1.31,0,0,0-1.22.83l-.4,1h27Z"/><path class="cls-4" d="M193.8,148.18l-2.5-2.48a.31.31,0,0,0-.52.22v2.17l-.15,0h-20.5a1.3,1.3,0,0,0-1.21.83l-.41,1h27Z"/><path class="cls-4" d="M229.35,148.18l-2.49-2.48a.31.31,0,0,0-.53.22v2.17l-.15,0H205.69a1.31,1.31,0,0,0-1.22.83l-.41,1h27.05Z"/></g></g><path class="cls-5" d="M123.84,55.84V73.16h-5.77V55.84h-4.74V51h15.25v4.89Z"/><path class="cls-5" d="M151.38,73.16h-7.19l-5.5-8.54v8.54h-5.78V51h9a8.73,8.73,0,0,1,3.24.55,6,6,0,0,1,3.63,3.66,7.5,7.5,0,0,1,.46,2.65A6.54,6.54,0,0,1,148,61.92a6.22,6.22,0,0,1-3.61,2.14ZM138.69,60.88h1.09a4.23,4.23,0,0,0,2.62-.71,2.72,2.72,0,0,0,0-4.06,4.17,4.17,0,0,0-2.62-.71h-1.09Z"/><path class="cls-5" d="M169.17,69.3h-8.25l-1.32,3.86h-6.16L161.9,51h6.3l8.45,22.21H170.5Zm-1.53-4.39-2.59-7.39-2.59,7.39Z"/><path class="cls-5" d="M181,73.16V51h5.77l10.67,13.58V51h5.74V73.16h-5.74L186.72,59.58V73.16Z"/><path class="cls-5" d="M221.75,56.64a7.05,7.05,0,0,0-1.89-1.14,5.15,5.15,0,0,0-1.83-.37,3,3,0,0,0-1.82.53,1.68,1.68,0,0,0-.71,1.39,1.41,1.41,0,0,0,.35,1,3,3,0,0,0,.93.66,8.2,8.2,0,0,0,1.3.49c.48.14,1,.28,1.43.44a8.9,8.9,0,0,1,4.13,2.52A6.18,6.18,0,0,1,225,66.24a8,8,0,0,1-.58,3.09,6.42,6.42,0,0,1-1.68,2.37A7.61,7.61,0,0,1,220,73.23a11.07,11.07,0,0,1-3.63.55,13.4,13.4,0,0,1-7.81-2.51L211,66.62a9.89,9.89,0,0,0,2.57,1.71,6.2,6.2,0,0,0,2.5.56,3,3,0,0,0,2.11-.65,2,2,0,0,0,.69-1.47,1.93,1.93,0,0,0-.18-.87,1.86,1.86,0,0,0-.59-.68,4.25,4.25,0,0,0-1.07-.57c-.44-.18-1-.38-1.61-.59s-1.48-.5-2.19-.78a7.07,7.07,0,0,1-1.92-1.14A5.16,5.16,0,0,1,210,60.36a6.19,6.19,0,0,1-.52-2.72,7.73,7.73,0,0,1,.55-3,6.53,6.53,0,0,1,1.53-2.3A6.92,6.92,0,0,1,214,50.86a9.26,9.26,0,0,1,3.2-.53,13.77,13.77,0,0,1,3.45.46A15.06,15.06,0,0,1,224,52.13Z"/><path class="cls-5" d="M236.12,51V73.16h-5.78V51Z"/><path class="cls-5" d="M251,55.84V73.16h-5.77V55.84h-4.74V51H255.7v4.89Z"/><path class="cls-6" d="M120.62,85.78V97.9h-4V85.78h-3.32V82.35h10.68v3.43Z"/><path class="cls-6" d="M137.87,85.78h-4.8v2.59h4.53V91.8h-4.53v2.68h4.8V97.9H129V82.35h8.84Z"/><path class="cls-6" d="M155.27,87.55a4.38,4.38,0,0,0-5.14-1.38,4,4,0,0,0-1.33.9,4.1,4.1,0,0,0-.88,1.35,4.46,4.46,0,0,0-.32,1.69,4.53,4.53,0,0,0,.32,1.71,4.33,4.33,0,0,0,.89,1.36,4.25,4.25,0,0,0,1.33.91,4.12,4.12,0,0,0,1.65.33,4.67,4.67,0,0,0,3.48-1.65v4.78l-.41.14a11.5,11.5,0,0,1-1.73.49,8.72,8.72,0,0,1-1.59.15A8.14,8.14,0,0,1,145.86,96a8.33,8.33,0,0,1-1.8-2.61,8.18,8.18,0,0,1,1.78-9.18,8.32,8.32,0,0,1,2.61-1.69,8.06,8.06,0,0,1,3.11-.61,8.62,8.62,0,0,1,1.83.2,10.5,10.5,0,0,1,1.88.61Z"/><path class="cls-6" d="M165.83,88.35h5.83v-6h4.05V97.9h-4.05V91.49h-5.83V97.9h-4V82.35h4Z"/><path class="cls-6" d="M182.26,97.9V82.35h4l7.47,9.51V82.35h4V97.9h-4l-7.47-9.5v9.5Z"/><path class="cls-6" d="M203.83,90.13a8.06,8.06,0,0,1,.64-3.23,7.84,7.84,0,0,1,1.77-2.61A8.19,8.19,0,0,1,209,82.55a9.87,9.87,0,0,1,6.94,0,8.18,8.18,0,0,1,2.73,1.74,7.86,7.86,0,0,1,1.78,2.61,8.45,8.45,0,0,1,0,6.45A7.86,7.86,0,0,1,218.62,96a8,8,0,0,1-2.73,1.74,9.87,9.87,0,0,1-6.94,0A8,8,0,0,1,206.24,96a7.84,7.84,0,0,1-1.77-2.61A8,8,0,0,1,203.83,90.13Zm4.22,0a4,4,0,0,0,.36,1.71,4.47,4.47,0,0,0,.94,1.36,4.54,4.54,0,0,0,1.4.9,4.45,4.45,0,0,0,1.68.32,4.52,4.52,0,0,0,1.68-.32,4.79,4.79,0,0,0,1.4-.9,4.53,4.53,0,0,0,1-1.36,4.35,4.35,0,0,0,0-3.42,4.29,4.29,0,0,0-1-1.36,4.42,4.42,0,0,0-1.4-.9,4.52,4.52,0,0,0-1.68-.32,4.45,4.45,0,0,0-1.68.32,4.23,4.23,0,0,0-2.34,2.26A4,4,0,0,0,208.05,90.13Z"/><path class="cls-6" d="M230.94,82.35V94.48h4.85V97.9H226.9V82.35Z"/><path class="cls-6" d="M240.16,90.13a8.23,8.23,0,0,1,.63-3.23,8,8,0,0,1,4.49-4.35,9.87,9.87,0,0,1,6.94,0A8.18,8.18,0,0,1,255,84.29a7.86,7.86,0,0,1,1.78,2.61,8.45,8.45,0,0,1,0,6.45A7.86,7.86,0,0,1,255,96a8,8,0,0,1-2.73,1.74,9.87,9.87,0,0,1-6.94,0,8,8,0,0,1-4.49-4.35A8.18,8.18,0,0,1,240.16,90.13Zm4.22,0a4.18,4.18,0,0,0,.35,1.71,4.46,4.46,0,0,0,5.7,2.26,4.71,4.71,0,0,0,1.41-.9,4.33,4.33,0,0,0,.95-1.36,4.35,4.35,0,0,0,0-3.42,4.11,4.11,0,0,0-.95-1.36,4.35,4.35,0,0,0-1.41-.9,4.57,4.57,0,0,0-3.36,0,4.16,4.16,0,0,0-1.39.9,4.27,4.27,0,0,0-1,1.36A4.18,4.18,0,0,0,244.38,90.13Z"/><path class="cls-6" d="M270.79,89.2h8a22.17,22.17,0,0,1-.1,2.25,8.25,8.25,0,0,1-.41,1.87,7.51,7.51,0,0,1-1.18,2.16A6.64,6.64,0,0,1,275.38,97a8.2,8.2,0,0,1-2.2,1,9.33,9.33,0,0,1-2.51.33,8.82,8.82,0,0,1-3.31-.6,7.26,7.26,0,0,1-2.57-1.68,7.65,7.65,0,0,1-1.67-2.59,9,9,0,0,1-.59-3.35,9.17,9.17,0,0,1,.58-3.33,7.28,7.28,0,0,1,1.67-2.59,7.5,7.5,0,0,1,2.61-1.67,9.23,9.23,0,0,1,3.4-.6,8.42,8.42,0,0,1,4.27,1A7.34,7.34,0,0,1,278,86.23l-3.84,1.59A3.88,3.88,0,0,0,272.74,86a3.5,3.5,0,0,0-1.95-.55,3.9,3.9,0,0,0-1.65.34,3.5,3.5,0,0,0-1.26,1,4.57,4.57,0,0,0-.83,1.51,6.14,6.14,0,0,0-.3,2,6.39,6.39,0,0,0,.26,1.84,4.16,4.16,0,0,0,.77,1.46,3.6,3.6,0,0,0,1.28,1,4.43,4.43,0,0,0,1.77.34,4.91,4.91,0,0,0,1.16-.14,3.09,3.09,0,0,0,1-.43,2.56,2.56,0,0,0,.73-.77,3.17,3.17,0,0,0,.39-1.16h-3.32Z"/><path class="cls-6" d="M288.71,82.35V97.9h-4V82.35Z"/><path class="cls-6" d="M304.11,85.78h-4.8v2.59h4.53V91.8h-4.53v2.68h4.8V97.9h-8.84V82.35h8.84Z"/><path class="cls-6" d="M318.85,86.33a5.13,5.13,0,0,0-1.32-.79,3.52,3.52,0,0,0-1.28-.26,2.1,2.1,0,0,0-1.27.37,1.16,1.16,0,0,0-.5,1,.94.94,0,0,0,.25.68,2.06,2.06,0,0,0,.65.47,6,6,0,0,0,.91.34c.33.09.67.2,1,.31a6.21,6.21,0,0,1,2.89,1.76,4.34,4.34,0,0,1,.92,2.87,5.59,5.59,0,0,1-.4,2.17,4.46,4.46,0,0,1-1.18,1.66A5.36,5.36,0,0,1,317.63,98a7.77,7.77,0,0,1-2.55.38,9.31,9.31,0,0,1-5.46-1.75l1.73-3.26a6.84,6.84,0,0,0,1.79,1.2,4.34,4.34,0,0,0,1.75.39,2.13,2.13,0,0,0,1.48-.45,1.42,1.42,0,0,0,.36-1.64,1.39,1.39,0,0,0-.41-.48,4.08,4.08,0,0,0-.76-.4c-.31-.12-.68-.26-1.12-.41s-1-.35-1.54-.55a5,5,0,0,1-1.34-.79,3.71,3.71,0,0,1-.94-1.25,4.42,4.42,0,0,1-.37-1.91,5.4,5.4,0,0,1,.39-2.09,4.68,4.68,0,0,1,1.07-1.61,4.87,4.87,0,0,1,1.69-1,6.58,6.58,0,0,1,2.24-.37,9.93,9.93,0,0,1,2.41.32,10.57,10.57,0,0,1,2.41.94Z"/><path class="cls-6" d="M327.81,83.19v4h-1.42v-4h-1.08V82h3.58v1.22Zm1.34,4L330,82h1.39l1,2.65,1-2.65h1.41l.77,5.17h-1.42l-.35-2.8-1.15,2.8h-.63L331,84.34l-.41,2.8Z"/><rect class="cls-6" x="31.76" y="45.32" width="55.68" height="55.68" rx="10.05" transform="translate(69.19 -20.72) rotate(45)"/><path class="cls-4" d="M60.66,65.28,57.66,92h1.46a1.57,1.57,0,0,0,1.57-1.57l3-22.8A1.57,1.57,0,0,1,65.26,66h5.41l.18,0V68.7a.37.37,0,0,0,.63.27l3-3,2.11-2.1H62A1.37,1.37,0,0,0,60.66,65.28Z"/><path class="cls-4" d="M74.47,58.81l-3-3a.37.37,0,0,0-.63.27V58.7l-.18,0H46.1a1.58,1.58,0,0,0-1.46,1l-.49,1.22H76.58Z"/><path class="cls-4" d="M57.9,63.9H43A1.57,1.57,0,0,0,44.44,66h9A1.57,1.57,0,0,1,55,67.58l-3,22.8A1.57,1.57,0,0,0,53.61,92h1l3-26.67A4.49,4.49,0,0,1,57.9,63.9Z"/><rect class="cls-4" x="54.66" y="91.95" width="3"/></svg>